<svg width="600" height="600" viewBox="0 0 600 600" fill="none" xmlns="http://www.w3.org/2000/svg">
<path d="M65.1924 164.434L300 28.8675L534.808 164.434V435.566L300 571.133L65.1924 435.566V164.434Z" stroke="#64FFDA" stroke-width="50"/>
<path d="M248.641 324.422C248.641 335.578 246.531 346.078 242.312 355.922C238.094 365.672 232.328 374.203 225.016 381.516C217.797 388.734 209.266 394.453 199.422 398.672C189.672 402.891 179.219 405 168.062 405C161.312 405 154.562 404.156 147.812 402.469V359.156C150.812 360.938 154.047 362.297 157.516 363.234C160.984 364.172 164.5 364.641 168.062 364.641C173.594 364.641 178.797 363.609 183.672 361.547C188.641 359.391 192.953 356.484 196.609 352.828C200.266 349.172 203.125 344.906 205.188 340.031C207.344 335.156 208.422 329.953 208.422 324.422V203.344H248.641V324.422ZM445.375 304.172C445.375 313.453 444.156 322.406 441.719 331.031C439.375 339.562 436 347.578 431.594 355.078C427.188 362.484 421.938 369.281 415.844 375.469C409.75 381.562 402.953 386.812 395.453 391.219C387.953 395.625 379.891 399.047 371.266 401.484C362.734 403.828 353.828 405 344.547 405H283.797V203.344H344.547C353.828 203.344 362.734 204.562 371.266 207C379.891 209.344 387.953 212.719 395.453 217.125C402.953 221.531 409.75 226.828 415.844 233.016C421.938 239.109 427.188 245.906 431.594 253.406C436 260.812 439.375 268.828 441.719 277.453C444.156 285.984 445.375 294.891 445.375 304.172ZM405.016 304.172C405.016 295.828 403.422 288 400.234 280.688C397.141 273.375 392.828 267 387.297 261.562C381.859 256.031 375.438 251.672 368.031 248.484C360.719 245.297 352.891 243.703 344.547 243.703H324.438V364.641H344.547C352.891 364.641 360.719 363.094 368.031 360C375.438 356.812 381.859 352.5 387.297 347.062C392.828 341.531 397.141 335.109 400.234 327.797C403.422 320.391 405.016 312.516 405.016 304.172Z" fill="#64FFDA"/>
</svg>
